<?xml version="1.0" encoding="UTF-8"?>
<svg viewBox="0 0 128 128" version="1.1" 
  xmlns="http://www.w3.org/2000/svg" 
  xmlns:xlink="http://www.w3.org/1999/xlink">
  <!-- Generator: Sketch 52.6 (67491) - http://www.bohemiancoding.com/sketch -->
  <title>Vue</title>
  <desc>Created with Sketch.</desc>
  <defs>
    <linearGradient id="SVGID_1_" gradientUnits="userSpaceOnUse" x1="93.9189" y1="9.0681" x2="93.9189" y2="116.7596" gradientTransform="matrix(1 0 0 1 -29.9189 0)">
      <stop offset="0" style="stop-color:#29CDFF"/>
      <stop offset="0.3786" style="stop-color:#148EFF"/>
      <stop offset="1" style="stop-color:#0A60FF"/>
    </linearGradient>
  </defs>
  <g id="Vue" stroke="none" stroke-width="1" fill="none" fill-rule="evenodd">
    <path id="Path" fill="url(#SVGID_1_)" d="M21.6,9.4v35.3c23.5-16.6,51.6-25.3,79.9-25.3c2.8,0,5.2,0,8,0.3V9.4H21.6z M84.2,51.3l2.1,25.6l-20.8,17
    l-14.9-17c11.4-21.5,31.5-37,55.4-43.2v-7.3h-4.5c-30.1,0-59.2,10-83,28.7v0.3h15.2L21.6,83.1L42,99.7l23.5,19l43.9-35.6
    l-5.9-41.2C97,44.4,90.5,47.1,84.2,51.3z"/>
  </g>
</svg>